#!OML:ASF I:\Actors\actors\Patient Classification 2\Patient 1\Session 1\actor1.ASF
:FULLY-SPECIFIED
:DEGREES
682
root -0.327225 18.6621 5.9937 2.24052 -9.87171 4.46837
lowerback 10.2745 -4.53874 2.87322
upperback -1.54374 -5.46054 3.08998
thorax -7.3574 -2.715 2.55401
lowerneck -17.2281 9.47896 7.84192
upperneck 23.3861 15.2933 -14.738
head 12.4679 5.85854 -4.2727
rclavicle -1.11319e-014 1.11319e-014
rhumerus -45.9486 27.0732 -95.998
rradius 112.937
rwrist -81.1802
rhand -26.6759 -45.6843
rfingers 7.12502
rthumb -0.107033 1004.34
lclavicle -1.11319e-014 1.11319e-014
lhumerus 1.74589 -24.5809 90.1436
lradius 87.9992
lwrist 91.374
lhand -37.0991 -21.3708
lfingers 7.12502
lthumb -10.1702 8.36343
rfemur 0 0 0
rtibia 0
rfoot 0 0
rtoes 0
lfemur -2.36049 4.30212 -20.1671
ltibia 19.0341
lfoot -21.1679 12.4611
ltoes -55.3236
683
root -0.322345 18.6684 5.95376 2.39958 -10.2013 4.52825
lowerback 10.7779 -4.63679 2.61887
upperback -1.14478 -5.64874 2.54717
thorax -7.24357 -2.80573 2.17524
lowerneck -17.2265 9.58451 7.99002
upperneck 23.9722 15.3321 -14.2282
head 12.6614 5.91975 -4.10981
rclavicle 9.10434e-014 -1.59028e-014
rhumerus -47.9594 27.5281 -96.4976
rradius 112.213
rwrist -80.4571
rhand -28.8123 -54.3688
rfingers 7.12502
rthumb -2.17046 995.662
lclavicle 9.10434e-014 -1.59028e-014
lhumerus -1.04055 -24.4923 91.6844
lradius 87.6572
lwrist 91.8617
lhand -37.5119 -21.6161
lfingers 7.12502
lthumb -10.5685 8.09816
rfemur 0 0 0
rtibia 0
rfoot 0 0
rtoes 0
lfemur -2.70685 4.45761 -20.2686
ltibia 19.1341
lfoot -21.1993 12.552
ltoes -55.2085
684
root -0.317784 18.6732 5.9163 2.4852 -10.5278 4.59127
lowerback 11.3548 -4.72855 2.36608
upperback -0.729318 -5.83167 1.93552
thorax -7.16305 -2.89446 1.73115
lowerneck -17.1277 9.66795 8.18348
upperneck 24.4244 15.3132 -13.7513
head 12.7828 5.96775 -3.97703
rclavicle 9.93923e-016 -7.95139e-015
rhumerus -50.0063 27.8883 -97.0876
rradius 111.662
rwrist -80.1431
rhand -27.9862 -49.364
rfingers 7.12502
rthumb -1.37259 1000.66
lclavicle 9.93923e-016 -7.95139e-015
lhumerus -3.79981 -24.5587 92.9961
lradius 87.3565
lwrist 92.2695
lhand -38.0637 -21.9784
lfingers 7.12502
lthumb -11.1008 7.70797
rfemur 0 0 0
rtibia 0
rfoot 0 0
rtoes 0
lfemur -2.98333 4.57632 -20.3629
ltibia 19.2723
lfoot -21.2892 12.6403
ltoes -55.0015
685
root -0.31254 18.6765 5.88049 2.40683 -10.721 4.33665
lowerback 12.1671 -4.89214 2.4171
upperback -0.234544 -6.05679 1.38356
thorax -7.15803 -3.0112 1.21041
lowerneck -17.0693 9.76838 8.29139
upperneck 24.8292 15.3032 -13.1836
head 12.8784 6.0236 -3.78958
rclavicle -2.96189e-014 -1.03368e-014
rhumerus -52.0407 28.1574 -97.6288
rradius 111.189
rwrist -79.8555
rhand -28.1144 -48.9339
rfingers 7.12502
rthumb -1.49642 1001.09
lclavicle -2.96189e-014 -1.03368e-014
lhumerus -6.36752 -24.6564 94.1555
lradius 87.0304
lwrist 92.6203
lhand -38.112 -22.164
lfingers 7.12502
lthumb -11.1473 7.51991
rfemur 0 0 0
rtibia 0
rfoot 0 0
rtoes 0
lfemur -3.03279 4.5609 -20.0889
ltibia 19.4437
lfoot -21.3925 12.7296
ltoes -54.7993
686
root -0.30181 18.6782 5.8445 2.25734 -11.0115 3.7346
lowerback 13.1698 -5.0602 2.7455
upperback 0.307292 -6.23013 0.948899
thorax -7.22745 -3.10727 0.668417
lowerneck -17.1959 9.93147 8.25721
upperneck 25.3755 15.3921 -12.4782
head 13.057 6.11249 -3.50109
rclavicle -3.22031e-014 -1.51076e-014
rhumerus -54.1519 28.4796 -98.1823
rradius 110.938
rwrist -80.3521
rhand -29.5689 -48.9345
rfingers 7.12502
rthumb -2.90116 1001.11
lclavicle -3.22031e-014 -1.51076e-014
lhumerus -8.77803 -24.6418 95.2841
lradius 86.7376
lwrist 93.2321
lhand -37.745 -21.8297
lfingers 7.12502
lthumb -10.7933 7.87296
rfemur 0 0 0
rtibia 0
rfoot 0 0
rtoes 0
lfemur -2.83859 4.72509 -19.4339
ltibia 19.4886
lfoot -21.4398 12.7598
ltoes -54.7358
687
root -0.271048 18.6799 5.80486 2.20283 -11.3868 3.51124
lowerback 14.1808 -5.1862 2.86235
upperback 0.715531 -6.38394 0.394964
thorax -7.43506 -3.18789 0.123587
lowerneck -17.3387 10.0658 8.22092
upperneck 26.0616 15.4464 -11.7528
head 13.2916 6.1836 -3.21148
rclavicle -4.27387e-014 1.78906e-014
rhumerus -56.0644 28.4541 -98.3033
rradius 110.348
rwrist -79.1017
rhand -28.0257 -51.9714
rfingers 7.12502
rthumb -1.41073 998.054
lclavicle -4.27387e-014 1.78906e-014
lhumerus -11.2127 -24.6928 96.4418
lradius 86.4819
lwrist 93.9342
lhand -37.8215 -21.7965
lfingers 7.12502
lthumb -10.8671 7.90232
rfemur 0 0 0
rtibia 0
rfoot 0 0
rtoes 0
lfemur -2.79502 4.9552 -19.28
ltibia 19.4993
lfoot -21.4585 12.8849
ltoes -54.8376
688
root -0.289661 18.6859 5.77633 2.28427 -12.0533 4.22346
lowerback 14.627 -5.00071 1.26016
upperback 1.03541 -6.43667 -0.253132
thorax -7.23938 -3.17118 0.355028
lowerneck -17.3408 10.1319 8.24898
upperneck 26.7041 15.3908 -11.0784
head 13.4797 6.21674 -2.97667
rclavicle -5.26779e-015 1.98785e-015
rhumerus -58.3951 28.6487 -98.7908
rradius 110.403
rwrist -80.2448
rhand -30.3933 -51.5519
rfingers 7.12502
rthumb -3.69729 998.5
lclavicle -5.26779e-015 1.98785e-015
lhumerus -13.6473 -24.4723 97.5096
lradius 86.8581
lwrist 96.0821
lhand -40.2278 -21.8059
lfingers 7.12502
lthumb -13.1874 7.75704
rfemur 0 0 0
rtibia 0
rfoot 0 0
rtoes 0
lfemur -3.0945 5.14161 -20.0627
ltibia 19.4547
lfoot -21.5319 13.2752
ltoes -54.855
689
root -0.288459 18.6897 5.74738 2.35282 -12.5565 4.46157
lowerback 15.1744 -4.93479 0.370194
upperback 1.40347 -6.5338 -0.855416
thorax -7.12173 -3.19939 0.260676
lowerneck -17.3449 10.2095 8.32357
upperneck 27.2356 15.3219 -10.421
head 13.6293 6.25254 -2.75442
rclavicle 2.73577e-014 9.93923e-017
rhumerus -60.4271 28.7274 -98.875
rradius 110.497
rwrist -80.7781
rhand -30.8478 -53.7447
rfingers 7.12502
rthumb -4.1362 996.316
lclavicle 2.73577e-014 9.93923e-017
lhumerus -15.9496 -24.6049 98.4503
lradius 87.1579
lwrist 97.8148
lhand -41.6793 -22.5047
lfingers 7.12502
lthumb -14.5862 6.96246
rfemur 0 0 0
rtibia 0
rfoot 0 0
rtoes 0
lfemur -3.23431 5.18428 -20.3795
ltibia 19.3418
lfoot -21.6427 13.6271
ltoes -54.7138
690
root -0.279405 18.6921 5.71642 2.44861 -12.9287 4.389
lowerback 15.7879 -4.92602 -0.130259
upperback 1.78086 -6.64373 -1.41377
thorax -7.06768 -3.24489 0.0066051
lowerneck -17.4603 10.3064 8.46123
upperneck 27.8449 15.2516 -9.73786
head 13.8417 6.29173 -2.52615
rclavicle -2.9122e-014 -2.69353e-014
rhumerus -62.4256 28.8795 -99.0058
rradius 110.558
rwrist -81.0683
rhand -30.7801 -54.4507
rfingers 7.12502
rthumb -4.07077 995.608
lclavicle -2.9122e-014 -2.69353e-014
lhumerus -18.0724 -24.9757 99.2571
lradius 87.3007
lwrist 98.5286
lhand -41.9605 -22.6659
lfingers 7.12502
lthumb -14.8571 6.78146
rfemur 0 0 0
rtibia 0
rfoot 0 0
rtoes 0
lfemur -3.31149 5.23879 -20.3641
ltibia 19.1825
lfoot -21.662 13.8991
ltoes -54.5678
